<svg width="172" height="39" viewBox="0 0 172 39" fill="none" xmlns="http://www.w3.org/2000/svg">
<path d="M19.76 7.12C19.76 9.06667 19.1467 10.6133 17.92 11.76C16.6933 12.88 15.0533 13.6 13 13.92V14.08C15.4 14.4 17.2267 15.16 18.48 16.36C19.7333 17.5333 20.36 19.0533 20.36 20.92C20.36 23.4267 19.4 25.4667 17.48 27.04C15.56 28.6133 12.68 29.4 8.84 29.4C7.29333 29.4 5.81333 29.28 4.4 29.04C3.01333 28.8267 1.72 28.4267 0.52 27.84V24.56C1.74667 25.1733 3.10667 25.64 4.6 25.96C6.09333 26.28 7.49333 26.44 8.8 26.44C11.36 26.44 13.2933 25.96 14.6 25C15.9333 24.04 16.6 22.68 16.6 20.92C16.6 19.1067 15.8267 17.7867 14.28 16.96C12.7333 16.1333 10.5733 15.72 7.8 15.72H3.72V12.72H7.6C10.4267 12.72 12.5333 12.2533 13.92 11.32C15.3333 10.36 16.04 9.08 16.04 7.48C16.04 6.04 15.5067 4.93333 14.44 4.16C13.3733 3.38667 11.9867 3 10.28 3C8.46667 3 6.97333 3.22667 5.8 3.68C4.62667 4.13333 3.48 4.72 2.36 5.44L0.64 3C1.76 2.17333 3.13333 1.48 4.76 0.919999C6.41333 0.333332 8.26667 0.0399985 10.32 0.0399985C13.3867 0.0399985 15.72 0.706665 17.32 2.04C18.9467 3.37333 19.76 5.06667 19.76 7.12ZM41.8356 7.56V26.04H44.9556V36.44H41.5556V29H26.6356V36.44H23.2756V26.04H24.9956C26.8356 23.5067 28.209 20.6267 29.1156 17.4C30.049 14.1467 30.529 10.8667 30.5556 7.56H41.8356ZM38.4356 10.32H33.6756C33.5423 12.1333 33.249 14.0133 32.7956 15.96C32.369 17.88 31.7956 19.72 31.0756 21.48C30.3823 23.24 29.569 24.76 28.6356 26.04H38.4356V10.32ZM67.7978 18.24C67.7978 21.7867 66.8911 24.5333 65.0778 26.48C63.2911 28.4267 60.8645 29.4 57.7978 29.4C55.9045 29.4 54.2111 28.9733 52.7178 28.12C51.2511 27.24 50.0911 25.9733 49.2378 24.32C48.3845 22.64 47.9578 20.6133 47.9578 18.24C47.9578 14.6933 48.8378 11.96 50.5978 10.04C52.3845 8.12 54.8245 7.16 57.9178 7.16C59.8378 7.16 61.5445 7.6 63.0378 8.48C64.5311 9.33333 65.6911 10.5867 66.5178 12.24C67.3711 13.8667 67.7978 15.8667 67.7978 18.24ZM51.5978 18.24C51.5978 20.7733 52.0911 22.7867 53.0778 24.28C54.0911 25.7467 55.6911 26.48 57.8778 26.48C60.0378 26.48 61.6245 25.7467 62.6378 24.28C63.6511 22.7867 64.1578 20.7733 64.1578 18.24C64.1578 15.7067 63.6511 13.72 62.6378 12.28C61.6245 10.84 60.0245 10.12 57.8378 10.12C55.6511 10.12 54.0645 10.84 53.0778 12.28C52.0911 13.72 51.5978 15.7067 51.5978 18.24ZM83.5766 7.16C86.2166 7.16 88.3366 8.08 89.9366 9.92C91.5632 11.76 92.3766 14.5333 92.3766 18.24C92.3766 21.8933 91.5632 24.6667 89.9366 26.56C88.3366 28.4533 86.2032 29.4 83.5366 29.4C81.8832 29.4 80.5099 29.0933 79.4166 28.48C78.3499 27.8667 77.5099 27.1333 76.8966 26.28H76.6566C76.6832 26.7333 76.7232 27.3067 76.7766 28C76.8566 28.6933 76.8966 29.2933 76.8966 29.8V38.6H73.3766V7.56H76.2566L76.7366 10.48H76.8966C77.5366 9.54667 78.3766 8.76 79.4166 8.12C80.4566 7.48 81.8432 7.16 83.5766 7.16ZM82.9366 10.12C80.7499 10.12 79.2032 10.7333 78.2966 11.96C77.3899 13.1867 76.9232 15.0533 76.8966 17.56V18.24C76.8966 20.88 77.3232 22.92 78.1766 24.36C79.0566 25.7733 80.6699 26.48 83.0166 26.48C84.2966 26.48 85.3632 26.1333 86.2166 25.44C87.0699 24.72 87.6966 23.7333 88.0966 22.48C88.5232 21.2267 88.7366 19.8 88.7366 18.2C88.7366 15.7467 88.2566 13.7867 87.2966 12.32C86.3632 10.8533 84.9099 10.12 82.9366 10.12ZM116.626 18.24C116.626 21.7867 115.719 24.5333 113.906 26.48C112.119 28.4267 109.693 29.4 106.626 29.4C104.733 29.4 103.039 28.9733 101.546 28.12C100.079 27.24 98.9193 25.9733 98.0659 24.32C97.2126 22.64 96.7859 20.6133 96.7859 18.24C96.7859 14.6933 97.6659 11.96 99.4259 10.04C101.213 8.12 103.653 7.16 106.746 7.16C108.666 7.16 110.373 7.6 111.866 8.48C113.359 9.33333 114.519 10.5867 115.346 12.24C116.199 13.8667 116.626 15.8667 116.626 18.24ZM100.426 18.24C100.426 20.7733 100.919 22.7867 101.906 24.28C102.919 25.7467 104.519 26.48 106.706 26.48C108.866 26.48 110.453 25.7467 111.466 24.28C112.479 22.7867 112.986 20.7733 112.986 18.24C112.986 15.7067 112.479 13.72 111.466 12.28C110.453 10.84 108.853 10.12 106.666 10.12C104.479 10.12 102.893 10.84 101.906 12.28C100.919 13.72 100.426 15.7067 100.426 18.24ZM139.445 12.96C139.445 14.2933 139.045 15.3333 138.245 16.08C137.445 16.8267 136.418 17.3333 135.165 17.6V17.76C136.471 17.9467 137.618 18.4267 138.605 19.2C139.618 19.9467 140.125 21.12 140.125 22.72C140.125 24.5333 139.445 26.04 138.085 27.24C136.751 28.4133 134.538 29 131.445 29H122.205V7.56H131.405C132.925 7.56 134.285 7.73333 135.485 8.08C136.711 8.4 137.671 8.96 138.365 9.76C139.085 10.5333 139.445 11.6 139.445 12.96ZM135.885 13.4C135.885 12.3867 135.511 11.6533 134.765 11.2C134.045 10.72 132.858 10.48 131.205 10.48H125.725V16.36H130.565C134.111 16.36 135.885 15.3733 135.885 13.4ZM136.485 22.72C136.485 21.4933 136.018 20.6133 135.085 20.08C134.151 19.5467 132.778 19.28 130.965 19.28H125.725V26.16H131.045C132.805 26.16 134.151 25.9067 135.085 25.4C136.018 24.8667 136.485 23.9733 136.485 22.72ZM144.092 3.04C144.092 2.88 144.452 2.44 145.172 1.72C145.225 1.66667 145.358 1.50667 145.572 1.24C145.812 0.946665 146.012 0.746665 146.172 0.639998C146.358 0.533331 146.558 0.479998 146.772 0.479998C146.852 0.479998 146.985 0.533331 147.172 0.639998C147.358 0.719999 147.585 0.879999 147.852 1.12C148.118 1.36 148.372 1.64 148.612 1.96C148.852 2.28 149.052 2.70667 149.212 3.24C149.372 3.77333 149.452 4.34667 149.452 4.96C149.452 6.08 149.265 7.12 148.892 8.08C148.518 9.04 148.078 9.78667 147.572 10.32C147.065 10.8267 146.585 11.2267 146.132 11.52C145.705 11.7867 145.372 11.92 145.132 11.92C144.998 11.92 144.878 11.8667 144.772 11.76C144.665 11.6267 144.612 11.52 144.612 11.44C144.612 11.28 144.718 11.1067 144.932 10.92C145.172 10.7067 145.438 10.4933 145.732 10.28C146.025 10.04 146.278 9.66667 146.492 9.16C146.732 8.65333 146.852 8.05333 146.852 7.36C146.852 6.64 146.705 6.04 146.412 5.56C146.118 5.05333 145.798 4.70667 145.452 4.52C145.132 4.33333 144.825 4.12 144.532 3.88C144.238 3.64 144.092 3.36 144.092 3.04ZM157.118 29H153.038L159.158 20C158.332 19.8133 157.532 19.48 156.758 19C155.985 18.52 155.358 17.8667 154.878 17.04C154.398 16.2133 154.158 15.16 154.158 13.88C154.158 11.8533 154.852 10.2933 156.238 9.2C157.625 8.10667 159.465 7.56 161.758 7.56H171.358V29H167.838V20.48H162.638L157.118 29ZM157.558 13.92C157.558 15.1733 158.012 16.0933 158.918 16.68C159.852 17.2667 161.145 17.56 162.798 17.56H167.838V10.48H162.118C160.492 10.48 159.318 10.8133 158.598 11.48C157.905 12.12 157.558 12.9333 157.558 13.92Z" fill="white"/>
</svg>
