<svg width="394" height="178" viewBox="0 0 394 178" fill="none" xmlns="http://www.w3.org/2000/svg">
<path d="M42.712 59.72C40.024 59.72 38.008 59.072 36.664 57.776C35.32 56.48 34.408 54.272 33.928 51.152L32.2 38.984C31.72 35.576 30.688 33.104 29.104 31.568C27.52 30.032 24.976 29.264 21.472 29.264H15.424V56.408L22.048 57.488V59H0.88V57.488L7.504 56.408V3.992L0.88 2.984V1.4H22.048V2.984L15.424 3.992V27.536H22.984C25.288 27.488 27.256 26.6 28.888 24.872C30.52 23.096 31.696 20.744 32.416 17.816L34.648 8.744C35.32 6.056 36.328 4.04 37.672 2.696C39.064 1.352 40.72 0.679996 42.64 0.679996C44.224 0.679996 45.592 1.136 46.744 2.048C47.944 2.96 48.544 4.16 48.544 5.648C48.544 7.04 48.136 8.168 47.32 9.032C46.552 9.896 45.52 10.328 44.224 10.328H42.784C42.016 8.264 40.816 7.232 39.184 7.232C37.6 7.232 36.616 8.048 36.232 9.68L34 18.752C33.424 21.008 32.584 22.928 31.48 24.512C30.376 26.048 29.104 27.152 27.664 27.824C31.648 28.304 34.696 29.456 36.808 31.28C38.92 33.104 40.216 35.576 40.696 38.696L42.352 49.568C42.736 52.016 43.144 53.72 43.576 54.68C44.008 55.64 44.632 56.216 45.448 56.408C45.592 56.456 45.808 56.48 46.096 56.48C47.536 56.48 49.048 55.664 50.632 54.032L51.856 55.328C49.264 58.256 46.216 59.72 42.712 59.72ZM71.494 59.72C68.038 59.72 64.894 58.928 62.062 57.344C59.23 55.712 56.974 53.432 55.294 50.504C53.662 47.528 52.846 44.144 52.846 40.352C52.846 36.56 53.662 33.2 55.294 30.272C56.974 27.344 59.23 25.088 62.062 23.504C64.894 21.872 68.038 21.056 71.494 21.056C74.95 21.056 78.094 21.872 80.926 23.504C83.758 25.088 85.99 27.344 87.622 30.272C89.302 33.2 90.142 36.56 90.142 40.352C90.142 44.144 89.302 47.528 87.622 50.504C85.99 53.432 83.758 55.712 80.926 57.344C78.094 58.928 74.95 59.72 71.494 59.72ZM71.494 58.136C75.046 58.136 77.71 56.84 79.486 54.248C81.31 51.656 82.222 48.224 82.222 43.952V36.752C82.222 32.48 81.31 29.072 79.486 26.528C77.71 23.936 75.046 22.64 71.494 22.64C67.942 22.64 65.254 23.936 63.43 26.528C61.654 29.072 60.766 32.48 60.766 36.752V43.952C60.766 48.224 61.654 51.656 63.43 54.248C65.254 56.84 67.942 58.136 71.494 58.136ZM95.1471 59V57.56L100.619 55.4V23.792L95.5791 23.144V21.704H109.547L120.923 48.632L132.227 21.704H145.475V23.144L140.435 23.864V56.84L145.475 57.56V59H128.915V57.56L133.235 56.84V24.08L118.331 59H117.467L102.419 24.08V55.4L107.891 57.56V59H95.1471ZM149.358 59V57.56L154.398 56.84V23.864L149.358 23.144V21.704H191.118V23.144L186.078 23.864V56.84L191.118 57.56V59H174.558V57.56L178.878 56.84V23.504H161.598V56.84L165.918 57.56V59H149.358ZM196.791 19.04C198.231 18.176 199.527 16.976 200.679 15.44C201.879 13.856 202.479 12.272 202.479 10.688C202.479 10.256 202.359 9.92 202.119 9.68C201.879 9.392 201.519 9.248 201.039 9.248C199.839 9.248 198.807 8.84 197.943 8.024C197.127 7.16 196.719 6.128 196.719 4.928C196.719 3.728 197.127 2.744 197.943 1.976C198.807 1.16 199.839 0.751999 201.039 0.751999C202.719 0.751999 204.039 1.376 204.999 2.624C206.007 3.824 206.511 5.408 206.511 7.376C206.511 10.064 205.767 12.512 204.279 14.72C202.839 16.88 200.607 18.704 197.583 20.192L196.791 19.04ZM248.75 59.72C243.566 59.72 239.126 57.944 235.43 54.392C232.022 50.84 230.246 46.376 230.102 41H223.262V56.84L227.582 57.56V59H211.022V57.56L216.062 56.84V23.864L211.022 23.144V21.704H227.582V23.144L223.262 23.864V39.2H230.102C230.294 35.6 231.23 32.432 232.91 29.696C234.59 26.96 236.798 24.848 239.534 23.36C242.318 21.824 245.39 21.056 248.75 21.056C252.206 21.056 255.35 21.872 258.182 23.504C261.062 25.136 263.318 27.44 264.95 30.416C266.582 33.344 267.398 36.656 267.398 40.352C267.398 44.048 266.582 47.384 264.95 50.36C263.318 53.288 261.086 55.592 258.254 57.272C255.422 58.904 252.254 59.72 248.75 59.72ZM248.75 58.136C252.254 58.136 254.918 56.864 256.742 54.32C258.566 51.776 259.478 48.32 259.478 43.952V36.752C259.478 32.336 258.566 28.88 256.742 26.384C254.918 23.888 252.254 22.64 248.75 22.64C245.246 22.64 242.582 23.888 240.758 26.384C238.934 28.88 238.022 32.336 238.022 36.752V43.952C238.022 48.32 238.934 51.776 240.758 54.32C242.582 56.864 245.246 58.136 248.75 58.136ZM280.685 59V57.56L286.445 56.84V23.504H280.253L273.989 35.384H271.973L273.053 21.704H307.037L308.117 35.384H306.101L299.765 23.504H293.645V56.84L299.405 57.56V59H280.685ZM331.729 59.72C328.177 59.72 324.961 58.928 322.081 57.344C319.201 55.712 316.921 53.432 315.241 50.504C313.561 47.576 312.721 44.192 312.721 40.352C312.721 36.512 313.537 33.152 315.169 30.272C316.849 27.344 319.081 25.088 321.865 23.504C324.697 21.872 327.841 21.056 331.297 21.056C334.321 21.056 337.033 21.728 339.433 23.072C341.833 24.416 343.705 26.288 345.049 28.688C346.393 31.04 347.089 33.752 347.137 36.824H320.641V43.952C320.641 48.176 321.577 51.608 323.449 54.248C325.369 56.84 328.129 58.136 331.729 58.136C335.041 58.136 337.969 57.2 340.513 55.328C343.057 53.456 344.617 51.032 345.193 48.056H346.849C346.177 51.608 344.473 54.44 341.737 56.552C339.001 58.664 335.665 59.72 331.729 59.72ZM339.217 35.024C339.217 30.848 338.569 27.752 337.273 25.736C335.977 23.672 333.961 22.64 331.225 22.64C328.009 22.64 325.513 23.768 323.737 26.024C321.961 28.28 320.953 31.28 320.713 35.024H339.217ZM351.496 77.936L356.536 77.216V23.936L351.496 23.216V21.776H363.736V29.336C364.936 26.744 366.544 24.728 368.56 23.288C370.624 21.8 373.072 21.056 375.904 21.056C379.312 21.056 382.312 21.872 384.904 23.504C387.496 25.088 389.512 27.344 390.952 30.272C392.392 33.152 393.112 36.536 393.112 40.424C393.112 44.312 392.392 47.72 390.952 50.648C389.512 53.528 387.496 55.76 384.904 57.344C382.312 58.928 379.312 59.72 375.904 59.72C373.072 59.72 370.624 59 368.56 57.56C366.544 56.072 364.936 54.056 363.736 51.512V77.216L370.504 77.936V79.376H351.496V77.936ZM375.184 57.92C381.856 57.92 385.192 53.288 385.192 44.024V36.824C385.192 27.512 381.856 22.856 375.184 22.856C373.072 22.856 371.152 23.48 369.424 24.728C367.696 25.928 366.328 27.56 365.32 29.624C364.312 31.688 363.784 33.92 363.736 36.32V44.024C363.736 46.472 364.216 48.776 365.176 50.936C366.184 53.048 367.552 54.752 369.28 56.048C371.056 57.296 373.024 57.92 375.184 57.92ZM7.648 111.352C6.304 111.352 5.152 110.896 4.192 109.984C3.232 109.024 2.752 107.872 2.752 106.528C2.752 105.184 3.208 104.056 4.12 103.144C5.08 102.232 6.256 101.776 7.648 101.776C8.944 101.776 10.048 102.232 10.96 103.144C11.872 104.056 12.328 105.184 12.328 106.528C12.328 107.872 11.872 109.024 10.96 109.984C10.048 110.896 8.944 111.352 7.648 111.352ZM0.0160001 157V155.56L5.056 154.84V121.936L0.0160001 121.216V119.776H12.256V154.84L17.296 155.56V157H0.0160001ZM53.9671 157.72C48.6391 157.72 44.7511 156.976 42.3031 155.488C39.9031 153.952 38.7031 152.032 38.7031 149.728C38.7031 148.288 39.1111 147.136 39.9271 146.272C40.7911 145.36 41.9191 144.904 43.3111 144.904C44.2231 144.904 45.0391 145.144 45.7591 145.624C46.4791 146.104 46.9831 146.776 47.2711 147.64C46.4551 148.6 46.0471 149.608 46.0471 150.664C46.0471 152.296 46.7671 153.664 48.2071 154.768C49.6951 155.824 51.6151 156.352 53.9671 156.352C56.8471 156.352 59.1511 155.608 60.8791 154.12C62.6551 152.584 63.5431 150.352 63.5431 147.424V146.488C63.5431 143.848 62.5591 141.832 60.5911 140.44C58.6711 139 56.2711 138.28 53.3911 138.28H49.3591V136.552H53.3911C56.1271 136.552 58.2151 135.904 59.6551 134.608C61.0951 133.264 61.8151 131.32 61.8151 128.776V128.488C61.8151 123.112 59.2711 120.424 54.1831 120.424C51.4471 120.424 48.9271 121.096 46.6231 122.44L42.3031 132.736H40.7911L41.5831 119.056L45.9031 121.144C48.5911 119.752 51.3991 119.056 54.3271 119.056C59.7031 119.056 63.5911 119.848 65.9911 121.432C68.3911 122.968 69.5911 125.296 69.5911 128.416C69.5911 130.672 68.7511 132.544 67.0711 134.032C65.4391 135.52 62.9671 136.528 59.6551 137.056V137.128C63.5431 137.512 66.4471 138.544 68.3671 140.224C70.3351 141.904 71.3191 144.136 71.3191 146.92C71.3191 150.328 69.8791 152.992 66.9991 154.912C64.1191 156.784 59.7751 157.72 53.9671 157.72ZM113.439 168.88H111.422L105.087 157H81.9025L75.6385 168.88H73.6225L74.7025 155.2H77.0065C78.0625 155.2 79.0945 154.744 80.1025 153.832C81.1105 152.92 81.9985 151.6 82.7665 149.872C83.4385 148.288 83.9665 146.32 84.3505 143.968C84.7825 141.616 85.1665 137.92 85.5025 132.88L86.0785 124.24L79.5265 121.144V119.704H112.287V121.144L107.247 121.864V155.2H112.359L113.439 168.88ZM100.047 121.504H88.0945L87.3025 132.88C86.9665 137.968 86.5825 141.736 86.1505 144.184C85.7185 146.584 85.1905 148.6 84.5665 150.232C84.1345 151.288 83.6545 152.2 83.1265 152.968C82.6465 153.688 82.2145 154.216 81.8305 154.552C81.4945 154.888 81.2785 155.104 81.1825 155.2H100.047V121.504ZM135.689 157.72C132.233 157.72 129.089 156.928 126.257 155.344C123.425 153.712 121.169 151.432 119.489 148.504C117.857 145.528 117.041 142.144 117.041 138.352C117.041 134.56 117.857 131.2 119.489 128.272C121.169 125.344 123.425 123.088 126.257 121.504C129.089 119.872 132.233 119.056 135.689 119.056C139.145 119.056 142.289 119.872 145.121 121.504C147.953 123.088 150.185 125.344 151.817 128.272C153.497 131.2 154.337 134.56 154.337 138.352C154.337 142.144 153.497 145.528 151.817 148.504C150.185 151.432 147.953 153.712 145.121 155.344C142.289 156.928 139.145 157.72 135.689 157.72ZM135.689 156.136C139.241 156.136 141.905 154.84 143.681 152.248C145.505 149.656 146.417 146.224 146.417 141.952V134.752C146.417 130.48 145.505 127.072 143.681 124.528C141.905 121.936 139.241 120.64 135.689 120.64C132.137 120.64 129.449 121.936 127.625 124.528C125.849 127.072 124.961 130.48 124.961 134.752V141.952C124.961 146.224 125.849 149.656 127.625 152.248C129.449 154.84 132.137 156.136 135.689 156.136ZM158.91 175.936L163.95 175.216V121.936L158.91 121.216V119.776H171.15V127.336C172.35 124.744 173.958 122.728 175.974 121.288C178.038 119.8 180.486 119.056 183.318 119.056C186.726 119.056 189.726 119.872 192.318 121.504C194.91 123.088 196.926 125.344 198.366 128.272C199.806 131.152 200.526 134.536 200.526 138.424C200.526 142.312 199.806 145.72 198.366 148.648C196.926 151.528 194.91 153.76 192.318 155.344C189.726 156.928 186.726 157.72 183.318 157.72C180.486 157.72 178.038 157 175.974 155.56C173.958 154.072 172.35 152.056 171.15 149.512V175.216L177.918 175.936V177.376H158.91V175.936ZM182.598 155.92C189.27 155.92 192.606 151.288 192.606 142.024V134.824C192.606 125.512 189.27 120.856 182.598 120.856C180.486 120.856 178.566 121.48 176.838 122.728C175.11 123.928 173.742 125.56 172.734 127.624C171.726 129.688 171.198 131.92 171.15 134.32V142.024C171.15 144.472 171.63 146.776 172.59 148.936C173.598 151.048 174.966 152.752 176.694 154.048C178.47 155.296 180.438 155.92 182.598 155.92ZM225.338 157.72C221.882 157.72 218.738 156.928 215.906 155.344C213.074 153.712 210.818 151.432 209.138 148.504C207.506 145.528 206.69 142.144 206.69 138.352C206.69 134.56 207.506 131.2 209.138 128.272C210.818 125.344 213.074 123.088 215.906 121.504C218.738 119.872 221.882 119.056 225.338 119.056C228.794 119.056 231.938 119.872 234.77 121.504C237.602 123.088 239.834 125.344 241.466 128.272C243.146 131.2 243.986 134.56 243.986 138.352C243.986 142.144 243.146 145.528 241.466 148.504C239.834 151.432 237.602 153.712 234.77 155.344C231.938 156.928 228.794 157.72 225.338 157.72ZM225.338 156.136C228.89 156.136 231.554 154.84 233.33 152.248C235.154 149.656 236.066 146.224 236.066 141.952V134.752C236.066 130.48 235.154 127.072 233.33 124.528C231.554 121.936 228.89 120.64 225.338 120.64C221.786 120.64 219.098 121.936 217.274 124.528C215.498 127.072 214.61 130.48 214.61 134.752V141.952C214.61 146.224 215.498 149.656 217.274 152.248C219.098 154.84 221.786 156.136 225.338 156.136ZM248.991 155.56L254.031 154.84V121.864L248.991 121.144V119.704H268.719C273.663 119.704 277.191 120.4 279.303 121.792C281.415 123.136 282.471 125.344 282.471 128.416C282.471 132.88 279.639 135.736 273.975 136.984V137.2C281.271 138.208 284.919 141.448 284.919 146.92C284.919 150.28 283.695 152.8 281.247 154.48C278.799 156.16 275.391 157 271.023 157H248.991V155.56ZM266.991 136.552C269.487 136.552 271.383 135.904 272.679 134.608C274.023 133.312 274.695 131.368 274.695 128.776V128.488C274.695 126.136 274.023 124.384 272.679 123.232C271.335 122.08 269.295 121.504 266.559 121.504H261.231V136.552H266.991ZM268.863 155.2C271.503 155.2 273.543 154.504 274.983 153.112C276.423 151.72 277.143 149.68 277.143 146.992V146.488C277.143 143.752 276.423 141.712 274.983 140.368C273.591 138.976 271.551 138.28 268.863 138.28H261.231V155.2H268.863ZM291.361 117.04C292.801 116.176 294.097 114.976 295.249 113.44C296.449 111.856 297.049 110.272 297.049 108.688C297.049 108.256 296.929 107.92 296.689 107.68C296.449 107.392 296.089 107.248 295.609 107.248C294.409 107.248 293.377 106.84 292.513 106.024C291.697 105.16 291.289 104.128 291.289 102.928C291.289 101.728 291.697 100.744 292.513 99.976C293.377 99.16 294.409 98.752 295.609 98.752C297.289 98.752 298.609 99.376 299.569 100.624C300.577 101.824 301.081 103.408 301.081 105.376C301.081 108.064 300.337 110.512 298.849 112.72C297.409 114.88 295.177 116.704 292.153 118.192L291.361 117.04ZM309.84 157.72C308.64 157.72 307.416 157.456 306.168 156.928C304.92 156.352 303.84 155.536 302.928 154.48L304.008 153.4C304.872 154.264 305.712 154.696 306.528 154.696C307.248 154.696 307.776 154.432 308.112 153.904C308.496 153.376 308.856 152.32 309.192 150.736L309.984 146.56C310.416 144.208 311.208 142.456 312.36 141.304C313.512 140.152 315.384 139.384 317.976 139V138.64C315.432 138.208 313.344 137.272 311.712 135.832C310.128 134.392 309.336 132.28 309.336 129.496C309.336 126.28 310.416 123.856 312.576 122.224C314.736 120.544 318.24 119.704 323.088 119.704H343.68V121.216L338.496 121.936V154.768L343.68 155.56V157H326.112V155.56L331.296 154.768V139.864H324.672C322.608 139.864 321 140.32 319.848 141.232C318.744 142.144 318.024 143.656 317.688 145.768L316.608 151.888C316.224 154 315.528 155.512 314.52 156.424C313.512 157.288 311.952 157.72 309.84 157.72ZM331.296 138.064V121.504H325.248C322.464 121.504 320.4 122.128 319.056 123.376C317.76 124.624 317.112 126.616 317.112 129.352V130.288C317.112 132.976 317.784 134.944 319.128 136.192C320.472 137.44 322.32 138.064 324.672 138.064H331.296Z" fill="white"/>
</svg>
